<?xml version="1.0" standalone="no"?>
<!DOCTYPE svg PUBLIC "-//W3C//DTD SVG 20010904//EN"
 "http://www.w3.org/TR/2001/REC-SVG-20010904/DTD/svg10.dtd">
<svg version="1.0" xmlns="http://www.w3.org/2000/svg"
 width="512.000000pt" height="512.000000pt" viewBox="0 0 512.000000 512.000000"
 preserveAspectRatio="xMidYMid meet">

<g transform="translate(0.000000,512.000000) scale(0.100000,-0.100000)"
fill="#000000" stroke="none">
<path d="M160 4947 c-19 -6 -58 -34 -85 -62 -71 -70 -91 -145 -63 -239 16 -55
99 -138 154 -154 32 -9 576 -12 2396 -12 2654 0 2412 -8 2491 80 90 100 90
220 0 320 -79 88 164 80 -2497 79 -1691 -1 -2371 -4 -2396 -12z"/>
<path d="M160 2867 c-19 -6 -58 -34 -85 -62 -71 -70 -91 -145 -63 -239 16 -55
99 -138 154 -154 32 -9 576 -12 2396 -12 2654 0 2412 -8 2491 80 90 100 90
220 0 320 -79 88 164 80 -2497 79 -1691 -1 -2371 -4 -2396 -12z"/>
<path d="M160 627 c-49 -16 -133 -102 -148 -153 -28 -94 -8 -169 63 -239 31
-32 65 -55 91 -63 32 -9 576 -12 2396 -12 2654 0 2412 -8 2491 80 90 100 90
220 0 320 -79 88 164 80 -2497 79 -1691 -1 -2371 -4 -2396 -12z"/>
</g>
</svg>
